<?xml version="1.0" encoding="UTF-8"?>
<svg version="1.1" xmlns="http://www.w3.org/2000/svg" width="32" height="32">
<path d="M0 0 C0.33 1.32 0.66 2.64 1 4 C8.26 4 15.52 4 23 4 C23 5.65 23 7.3 23 9 C15.74 9 8.48 9 1 9 C0.67 10.32 0.34 11.64 0 13 C-1.98 10.69 -3.96 8.38 -6 6 C-4.02 4.02 -2.04 2.04 0 0 Z " fill="#FF0288" transform="translate(7,16)"/>
<path d="M0 0 C2.31 1.98 4.62 3.96 7 6 C5.02 8.31 3.04 10.62 1 13 C0.67 11.68 0.34 10.36 0 9 C-7.26 9 -14.52 9 -22 9 C-22 7.35 -22 5.7 -22 4 C-14.74 4 -7.48 4 0 4 C0 2.68 0 1.36 0 0 Z " fill="#FF0288" transform="translate(24,4)"/>
</svg>
